<svg width="210" height="92" viewBox="0 0 210 92" fill="none" xmlns="http://www.w3.org/2000/svg">
<path d="M174.848 41.0461H131.849V89.2879H174.848V41.0461Z" fill="#F1CA89"/>
<path d="M156.772 41.0779H151.196V44.2866H156.772V41.0779Z" fill="white"/>
<path d="M163.11 64.0154H157.153V90.1298H163.301L163.11 64.0154Z" fill="#F1B873"/>
<path d="M170.067 41.0303H166.699V61.3468H170.067V41.0303Z" fill="#F1B873"/>
<path d="M210 61.3467H161.949V89.2878H210V61.3467Z" fill="#F1CA89"/>
<path d="M187.889 61.3467H183.219V74.7692H187.889V61.3467Z" fill="white"/>
<path d="M209.841 60.0918H199.659V91.4799H209.841V60.0918Z" fill="#EFA856"/>
<path d="M197.547 30.3877H170.066V61.3628H197.547V30.3877Z" fill="#F1CA89"/>
<path d="M186.269 30.3877H182.377V34.2794H186.269V30.3877Z" fill="white"/>
<path d="M170.082 21.1108H142.221V41.0779H170.082V21.1108Z" fill="#F1CA89"/>
<path d="M155.691 21.1108H152.212V23.573H155.691V21.1108Z" fill="white"/>
<path d="M197.548 61.5372H161.95C161.839 61.5372 161.76 61.4578 161.76 61.3466C161.76 61.2354 161.839 61.156 161.95 61.156H197.564C197.675 61.156 197.754 61.2354 197.754 61.3466C197.754 61.4578 197.659 61.5372 197.548 61.5372Z" fill="#ED963E"/>
<path d="M170.067 55.2787C169.955 55.2787 169.876 55.1992 169.876 55.0881V30.3874C169.876 30.2762 169.955 30.1968 170.067 30.1968C170.178 30.1968 170.257 30.2762 170.257 30.3874V55.1039C170.273 55.1992 170.178 55.2787 170.067 55.2787Z" fill="#ED963E"/>
<path d="M170.067 61.5372C169.955 61.5372 169.876 61.4578 169.876 61.3466V56.8513C169.876 56.7401 169.955 56.6606 170.067 56.6606C170.178 56.6606 170.257 56.7401 170.257 56.8513V61.3466C170.273 61.4578 170.178 61.5372 170.067 61.5372Z" fill="#ED963E"/>
<path d="M168.924 41.2684H143.683C143.572 41.2684 143.492 41.189 143.492 41.0778C143.492 40.9666 143.572 40.8872 143.683 40.8872H168.924C169.035 40.8872 169.114 40.9666 169.114 41.0778C169.114 41.189 169.035 41.2684 168.924 41.2684Z" fill="#ED963E"/>
<path d="M161.949 89.4786C161.838 89.4786 161.759 89.3991 161.759 89.288V63.1418C161.759 63.0306 161.838 62.9512 161.949 62.9512C162.061 62.9512 162.14 63.0306 162.14 63.1418V89.3038C162.14 89.3992 162.061 89.4786 161.949 89.4786Z" fill="#ED963E"/>
<path d="M108.111 51.4822H77.5967V89.2877H108.111V51.4822Z" fill="#F1CA89"/>
<path d="M97.2939 51.4504H91.5596V56.2317H97.2939V51.4504Z" fill="white"/>
<path d="M54.1489 89.2954H77.5947V51.4899H54.1489V89.2954Z" fill="#F1B873"/>
<path d="M108.111 13.6768H77.5967V51.4823H108.111V13.6768Z" fill="#F1CA89"/>
<path d="M96.8328 13.6768H91.3367V17.505H96.8328V13.6768Z" fill="white"/>
<path d="M54.1489 51.4927H77.5947V13.6872H54.1489V51.4927Z" fill="#F1B873"/>
<path d="M107.459 51.6889H77.5961C77.485 51.6889 77.3896 51.5936 77.3896 51.4824C77.3896 51.3712 77.485 51.2759 77.5961 51.2759H107.475C107.586 51.2759 107.682 51.3712 107.682 51.4824C107.666 51.6095 107.586 51.6889 107.459 51.6889Z" fill="#E5A251"/>
<path d="M75.2767 51.6889H54.1342C54.023 51.6889 53.9277 51.5936 53.9277 51.4824C53.9277 51.3712 54.023 51.2759 54.1342 51.2759H75.2767C75.3879 51.2759 75.4832 51.3712 75.4832 51.4824C75.4832 51.6095 75.4038 51.6889 75.2767 51.6889Z" fill="#E5A251"/>
<path d="M54.1666 51.4822H23.6521V89.2877H54.1666V51.4822Z" fill="#F1CA89"/>
<path d="M40.5372 51.4822V64.2058H34.6599V89.2877H44.4608V51.4822H40.5372Z" fill="#EFA856"/>
<path d="M23.6528 51.4822H0.207031V89.2877H23.6528V51.4822Z" fill="#F1B873"/>
<path d="M45.7311 24.0334H23.572V51.4822H45.7311V24.0334Z" fill="#F1CA89"/>
<path d="M43.4279 32.5796H40.5369V51.4823H43.4279V32.5796Z" fill="#EFA856"/>
<path d="M35.2469 23.9224H33.3884V51.4823H35.2469V23.9224Z" fill="white"/>
<path d="M23.5721 24.0334H6.5437V51.4822H23.5721V24.0334Z" fill="#F1B873"/>
<path d="M15.0737 24.0334H13.5964V51.4822H15.0737V24.0334Z" fill="#F9E7CD"/>
<path d="M51.8948 51.6886H23.6518C23.5406 51.6886 23.4453 51.5933 23.4453 51.4821C23.4453 51.3709 23.5406 51.2756 23.6518 51.2756H51.8948C52.0059 51.2756 52.1013 51.3709 52.1013 51.4821C52.1013 51.6092 52.0218 51.6886 51.8948 51.6886Z" fill="#E5A251"/>
<path d="M21.349 51.6886H0.206501C0.095308 51.6886 0 51.5933 0 51.4821C0 51.3709 0.095308 51.2756 0.206501 51.2756H21.349C21.4602 51.2756 21.5555 51.3709 21.5555 51.4821C21.5555 51.6092 21.4602 51.6886 21.349 51.6886Z" fill="#E5A251"/>
<path d="M48.9926 62.7158H64.8455V31.0736L48.9926 31.0736V62.7158Z" fill="#F1CA89"/>
<path d="M43.4395 62.7158H52.1602L52.1602 31.0736H43.4395V62.7158Z" fill="#F1B873"/>
<path d="M66.4769 32.5793H64.8567V62.7126H66.4769V32.5793Z" fill="#EFA856"/>
<path d="M48.5914 89.2856H70.7346V62.7741H48.5914V89.2856Z" fill="#F1CA89"/>
<path d="M37.4672 89.2983H48.5864V62.7233H37.4672V89.2983Z" fill="#F1B873"/>
<path d="M70.7342 62.9669H51.0849C50.9896 62.9669 50.9102 62.8875 50.9102 62.7922C50.9102 62.6969 50.9896 62.6174 51.0849 62.6174H70.7342C70.8295 62.6174 70.909 62.6969 70.909 62.7922C70.909 62.8875 70.8295 62.9669 70.7342 62.9669Z" fill="#E5A251"/>
<path d="M70.7391 89.29H72.8518V64.9706H70.7391V89.29Z" fill="#E5A251"/>
<path d="M52.1655 60.4254C52.0543 60.4254 51.959 60.3301 51.959 60.2189V49.7985C51.959 49.6873 52.0543 49.592 52.1655 49.592C52.2767 49.592 52.372 49.6873 52.372 49.7985V60.2189C52.372 60.3301 52.2767 60.4254 52.1655 60.4254Z" fill="#E5A251"/>
<path d="M52.1655 47.8606C52.0543 47.8606 51.959 47.7653 51.959 47.6541V31.0864C51.959 30.9752 52.0543 30.8799 52.1655 30.8799C52.2767 30.8799 52.372 30.9752 52.372 31.0864V47.6541C52.372 47.7653 52.2767 47.8606 52.1655 47.8606Z" fill="#E5A251"/>
<path d="M23.6518 89.5101C23.5406 89.5101 23.4453 89.4148 23.4453 89.3036V70.4008C23.4453 70.2896 23.5406 70.1943 23.6518 70.1943C23.763 70.1943 23.8583 70.2896 23.8583 70.4008V89.3036C23.8742 89.4148 23.7789 89.5101 23.6518 89.5101Z" fill="#E5A251"/>
<path d="M77.5961 32.9606C77.485 32.9606 77.3896 32.8653 77.3896 32.7541V25.8125C77.3896 25.7013 77.485 25.606 77.5961 25.606C77.7073 25.606 77.8026 25.7013 77.8026 25.8125V32.7541C77.8026 32.8653 77.7073 32.9606 77.5961 32.9606Z" fill="#E5A251"/>
<path d="M77.5961 24.1288C77.485 24.1288 77.3896 24.0335 77.3896 23.9223V13.6767C77.3896 13.5655 77.485 13.4702 77.5961 13.4702C77.7073 13.4702 77.8026 13.5655 77.8026 13.6767V23.9223C77.8026 24.0335 77.7073 24.1288 77.5961 24.1288Z" fill="#E5A251"/>
<path d="M23.5725 28.9577C23.4613 28.9577 23.366 28.8623 23.366 28.7512V24.0334C23.366 23.9222 23.4613 23.8269 23.5725 23.8269C23.6837 23.8269 23.779 23.9222 23.779 24.0334V28.7512C23.7949 28.8623 23.6995 28.9577 23.5725 28.9577Z" fill="#E5A251"/>
<path d="M23.6518 68.2566C23.5406 68.2566 23.4453 68.1613 23.4453 68.0501V52.7373C23.4453 52.6261 23.5406 52.5308 23.6518 52.5308C23.763 52.5308 23.8583 52.6261 23.8583 52.7373V68.0501C23.8742 68.1613 23.7789 68.2566 23.6518 68.2566Z" fill="#E5A251"/>
<path d="M23.5725 50.7673C23.4613 50.7673 23.366 50.672 23.366 50.5608V30.2443C23.366 30.1331 23.4613 30.0378 23.5725 30.0378C23.6837 30.0378 23.779 30.1331 23.779 30.2443V50.545C23.7949 50.672 23.6995 50.7673 23.5725 50.7673Z" fill="#E5A251"/>
<path d="M77.5961 50.7673C77.485 50.7673 77.3896 50.672 77.3896 50.5608V35.0415C77.3896 34.9303 77.485 34.835 77.5961 34.835C77.7073 34.835 77.8026 34.9303 77.8026 35.0415V50.5608C77.8026 50.672 77.7073 50.7673 77.5961 50.7673Z" fill="#E5A251"/>
<path d="M77.5961 89.5103C77.485 89.5103 77.3896 89.415 77.3896 89.3038V54.1987C77.3896 54.0875 77.485 53.9922 77.5961 53.9922C77.7073 53.9922 77.8026 54.0875 77.8026 54.1987V89.2879C77.8026 89.415 77.7073 89.5103 77.5961 89.5103Z" fill="#E5A251"/>
<path d="M48.5907 62.935H43.4282C43.317 62.935 43.2217 62.8397 43.2217 62.7285C43.2217 62.6173 43.317 62.522 43.4282 62.522H48.5907C48.7019 62.522 48.7972 62.6173 48.7972 62.7285C48.7972 62.8397 48.7019 62.935 48.5907 62.935Z" fill="#E5A251"/>
<path d="M108.111 13.6768H102.456V89.2878H108.111V13.6768Z" fill="#F1B873"/>
<path d="M132.463 91.734H79.8053C77.5021 91.734 75.6436 89.8755 75.6436 87.5722V8.62541C75.6436 6.32213 77.5021 4.46362 79.8053 4.46362H132.479C134.782 4.46362 136.641 6.32213 136.641 8.62541V87.5722C136.625 89.8755 134.766 91.734 132.463 91.734Z" fill="#8296C9"/>
<path d="M131.843 9.19727H80.4248V87.0163H131.843V9.19727Z" fill="white"/>
<path d="M116.022 3.57405H110.733C110.653 1.58847 109.017 0 107.016 0C105.014 0 103.362 1.58847 103.283 3.57405H97.9931C97.4848 3.57405 97.0559 3.98705 97.0559 4.51125V11.3417C97.0559 11.85 97.4689 12.2789 97.9931 12.2789H116.022C116.531 12.2789 116.959 11.8658 116.959 11.3417V4.51125C116.959 3.98705 116.546 3.57405 116.022 3.57405ZM107.016 4.38417C106.253 4.38417 105.634 3.76467 105.634 3.0022C105.634 2.23974 106.253 1.62024 107.016 1.62024C107.778 1.62024 108.398 2.23974 108.398 3.0022C108.398 3.76467 107.778 4.38417 107.016 4.38417Z" fill="#343766"/>
<path d="M94.5616 18.3308H87.5088V24.8594H94.5616V18.3308Z" fill="#F2F3F7"/>
<path d="M94.5616 31.7058H87.5088V38.2344H94.5616V31.7058Z" fill="#F2F3F7"/>
<path d="M94.5616 45.0649H87.5088V51.5935H94.5616V45.0649Z" fill="#F2F3F7"/>
<path d="M94.5616 58.4397H87.5088V64.9683H94.5616V58.4397Z" fill="#F2F3F7"/>
<path d="M94.5616 71.7988H87.5088V78.3274H94.5616V71.7988Z" fill="#F2F3F7"/>
<path d="M123.519 33.4054H99.4698C99.3109 33.4054 99.1838 33.2783 99.1838 33.1195V32.0869C99.1838 31.9281 99.3109 31.801 99.4698 31.801H123.519C123.678 31.801 123.805 31.9281 123.805 32.0869V33.1195C123.805 33.2783 123.678 33.4054 123.519 33.4054Z" fill="#E1E5EF"/>
<path d="M123.519 35.931H99.4698C99.3109 35.931 99.1838 35.8039 99.1838 35.6451V34.6126C99.1838 34.4537 99.3109 34.3267 99.4698 34.3267H123.519C123.678 34.3267 123.805 34.4537 123.805 34.6126V35.6451C123.805 35.8039 123.678 35.931 123.519 35.931Z" fill="#E1E5EF"/>
<path d="M111.272 38.4567H99.3747C99.2635 38.4567 99.1682 38.3614 99.1682 38.2502V37.0429C99.1682 36.9317 99.2635 36.8364 99.3747 36.8364H111.272C111.384 36.8364 111.479 36.9317 111.479 37.0429V38.2502C111.495 38.3772 111.399 38.4567 111.272 38.4567Z" fill="#E1E5EF"/>
<path d="M88.9698 33.7073L90.2088 35.1051L93.9735 31.4675L95.0218 32.5L90.2247 37.1701L87.9055 34.6127L88.9698 33.7073Z" fill="#8296C9"/>
<path d="M123.44 46.8597H99.4541C99.2953 46.8597 99.1682 46.7326 99.1682 46.5738V45.5413C99.1682 45.3825 99.2953 45.2554 99.4541 45.2554H123.424C123.583 45.2554 123.71 45.3825 123.71 45.5413V46.5738C123.726 46.7326 123.599 46.8597 123.44 46.8597Z" fill="#E1E5EF"/>
<path d="M123.44 49.3854H99.4541C99.2953 49.3854 99.1682 49.2583 99.1682 49.0994V48.0669C99.1682 47.9081 99.2953 47.781 99.4541 47.781H123.424C123.583 47.781 123.71 47.9081 123.71 48.0669V49.0994C123.726 49.2583 123.599 49.3854 123.44 49.3854Z" fill="#E1E5EF"/>
<path d="M111.241 51.9269H99.3747C99.2635 51.9269 99.1682 51.8316 99.1682 51.7204V50.5131C99.1682 50.4019 99.2635 50.3066 99.3747 50.3066H111.241C111.352 50.3066 111.447 50.4019 111.447 50.5131V51.7204C111.447 51.8316 111.352 51.9269 111.241 51.9269Z" fill="#E1E5EF"/>
<path d="M88.9698 47.1616L90.2088 48.5595L93.9735 44.9219L95.0218 45.9544L90.2247 50.6245L87.9055 48.067L88.9698 47.1616Z" fill="#8296C9"/>
<path d="M123.44 60.3143H99.4541C99.2953 60.3143 99.1682 60.1872 99.1682 60.0284V58.9959C99.1682 58.837 99.2953 58.71 99.4541 58.71H123.424C123.583 58.71 123.71 58.837 123.71 58.9959V60.0284C123.726 60.1872 123.599 60.3143 123.44 60.3143Z" fill="#E1E5EF"/>
<path d="M123.44 62.8558H99.4541C99.2953 62.8558 99.1682 62.7287 99.1682 62.5699V61.5374C99.1682 61.3785 99.2953 61.2515 99.4541 61.2515H123.424C123.583 61.2515 123.71 61.3785 123.71 61.5374V62.5699C123.726 62.7129 123.599 62.8558 123.44 62.8558Z" fill="#E1E5EF"/>
<path d="M111.241 65.3815H99.3747C99.2635 65.3815 99.1682 65.2862 99.1682 65.175V63.9677C99.1682 63.8565 99.2635 63.7612 99.3747 63.7612H111.241C111.352 63.7612 111.447 63.8565 111.447 63.9677V65.175C111.447 65.2862 111.352 65.3815 111.241 65.3815Z" fill="#E1E5EF"/>
<path d="M88.9698 60.616L90.2088 62.0138L93.9735 58.3762L95.0218 59.4246L90.2247 64.0788L87.9055 61.5214L88.9698 60.616Z" fill="#8296C9"/>
<path d="M123.44 73.7845H99.4541C99.2953 73.7845 99.1682 73.6575 99.1682 73.4986V72.4661C99.1682 72.3073 99.2953 72.1802 99.4541 72.1802H123.424C123.583 72.1802 123.71 72.3073 123.71 72.4661V73.4986C123.726 73.6416 123.599 73.7845 123.44 73.7845Z" fill="#E1E5EF"/>
<path d="M123.44 76.3102H99.4541C99.2953 76.3102 99.1682 76.1831 99.1682 76.0243V74.9759C99.1682 74.817 99.2953 74.6899 99.4541 74.6899H123.424C123.583 74.6899 123.71 74.817 123.71 74.9759V76.0084C123.726 76.1672 123.599 76.3102 123.44 76.3102Z" fill="#E1E5EF"/>
<path d="M111.241 78.8358H99.3747C99.2635 78.8358 99.1682 78.7405 99.1682 78.6293V77.4221C99.1682 77.3109 99.2635 77.2156 99.3747 77.2156H111.241C111.352 77.2156 111.447 77.3109 111.447 77.4221V78.6293C111.447 78.7405 111.352 78.8358 111.241 78.8358Z" fill="#E1E5EF"/>
<path d="M88.9698 74.0862L90.2088 75.4681L93.9735 71.8464L95.0218 72.8789L90.2247 77.5332L87.9055 74.9916L88.9698 74.0862Z" fill="#8296C9"/>
<path d="M123.44 19.951H99.4541C99.2953 19.951 99.1682 19.824 99.1682 19.6651V18.6326C99.1682 18.4738 99.2953 18.3467 99.4541 18.3467H123.424C123.583 18.3467 123.71 18.4738 123.71 18.6326V19.6651C123.726 19.824 123.599 19.951 123.44 19.951Z" fill="#E1E5EF"/>
<path d="M123.44 22.4767H99.4541C99.2953 22.4767 99.1682 22.3496 99.1682 22.1907V21.1582C99.1682 20.9994 99.2953 20.8723 99.4541 20.8723H123.424C123.583 20.8723 123.71 20.9994 123.71 21.1582V22.1907C123.726 22.3496 123.599 22.4767 123.44 22.4767Z" fill="#E1E5EF"/>
<path d="M111.241 25.0023H99.3747C99.2635 25.0023 99.1682 24.907 99.1682 24.7958V23.5886C99.1682 23.4774 99.2635 23.3821 99.3747 23.3821H111.241C111.352 23.3821 111.447 23.4774 111.447 23.5886V24.7958C111.447 24.907 111.352 25.0023 111.241 25.0023Z" fill="#E1E5EF"/>
<path d="M88.9698 20.2529L90.2088 21.6508L93.9735 18.0132L95.0218 19.0457L90.2247 23.6999L87.9055 21.1583L88.9698 20.2529Z" fill="#8296C9"/>
</svg>
