<svg width="180" height="163" viewBox="0 0 180 163" fill="none" xmlns="http://www.w3.org/2000/svg">
<g clip-path="url(#clip0_1_967)">
<path d="M16.4477 121.017C5.60961 116.387 0.108854 106.312 -7.15437e-05 95.0378C-0.0545345 88.121 0.272243 82.8926 3.92126 77.0106C6.8078 72.3812 11.9818 67.7519 12.0362 61.8154C12.0907 55.879 9.7488 50.0514 10.0756 43.4614C10.5657 34.6929 13.3978 25.652 20.2057 19.7156C26.5234 14.2693 35.5642 11.6006 43.6792 11.3828C53.3191 11.1104 58.2753 10.0212 66.3358 4.57489C80.3872 -4.90166 97.543 1.96067 110.124 11.3828C121.289 19.77 134.251 21.6218 147.322 27.1225C158.923 32.0242 166.275 37.4705 166.82 50.5416C166.983 55.062 166.166 59.9092 167.256 64.3752C168.617 69.9304 172.539 73.1437 175.643 77.7186C187.352 95.0923 173.791 117.095 155.383 123.25C132.399 130.983 103.97 126.082 80.1149 126.136C66.1179 126.191 51.8486 128.097 37.9061 127.389C31.0983 127.008 23.2011 126.844 16.4477 121.017Z" fill="#F5F9FF"/>
<path d="M73.7972 25.1073C73.7972 25.1073 70.8017 13.2344 54.4628 15.4129C38.124 17.5914 29.8456 32.8955 37.7427 42.7533C45.5854 52.6111 64.4296 64.5929 49.1799 73.307C33.9303 82.0755 28.4296 83.3827 35.4553 94.0029C42.481 104.623 33.0589 105.277 28.5385 105.004C24.0181 104.732 20.4235 110.941 24.3993 115.679C28.3751 120.417 32.242 126.899 42.9712 119.982C53.7004 113.119 87.0861 73.7972 87.0861 73.7972L73.7972 25.1073Z" fill="#0C253A"/>
<path d="M98.9591 77.4463C98.9591 77.4463 85.9425 103.48 44.2783 101.519L35.4009 123.467L60.5083 130.983L58.6021 152.06C58.6021 152.06 53.9727 156.036 56.587 159.467C59.2556 162.899 115.897 167.582 123.467 152.442C131.038 137.301 128.75 99.7216 128.75 99.7216C128.75 99.7216 128.097 88.1755 115.897 82.1845C103.752 76.2481 98.9591 77.4463 98.9591 77.4463Z" fill="#F8BC4A"/>
<path d="M97.2707 37.2526C97.2707 37.2526 99.1769 35.8911 97.543 32.0786C95.8546 28.3207 84.5263 20.4236 74.5052 24.1271C64.484 27.8305 57.7306 39.1044 62.4689 47.3827C67.2616 55.6611 72.1633 56.9137 73.5793 57.6218C74.9953 58.3298 78.6443 60.6717 77.4462 63.1225C76.248 65.5733 78.1542 66.8805 82.3478 66.2814C86.487 65.7367 97.2707 37.2526 97.2707 37.2526Z" fill="#0C253A"/>
<path d="M97.4885 37.7428C97.4885 37.7428 103.153 54.5173 102.227 57.5673C101.301 60.6172 95.31 63.3403 91.552 64.4841C91.552 64.4841 90.0815 73.3615 92.9681 75.1588C95.8002 76.9561 99.0135 77.3918 99.0135 77.3918C99.0135 77.3918 85.0165 103.752 49.2888 101.737C49.2888 101.737 51.7941 89.4826 62.5233 83.6006C62.5233 83.6006 78.9166 77.882 79.7881 75.3222C80.6595 72.708 81.9666 66.4992 81.2586 62.0332C81.2586 62.0332 79.9514 62.1422 77.9908 58.003C76.0301 53.8638 78.7533 51.9031 80.2238 53.2647C81.6943 54.6263 83.4371 52.3388 82.2389 47.7639C81.0407 43.1891 79.1345 36.1089 85.4522 33.5491C91.7154 31.0983 95.31 32.7866 97.4885 37.7428Z" fill="#F7886B"/>
<path d="M109.253 120.635C109.253 120.635 104.296 125.755 98.6868 129.513C93.1316 133.216 98.7957 143.728 91.062 147.322C83.2738 150.917 59.9092 162.898 55.8245 157.616C55.8245 157.616 55.2254 157.016 57.5673 152.714C59.9092 148.411 97.5431 122.65 97.7065 123.141C97.9243 123.522 109.253 120.635 109.253 120.635Z" fill="#FB8130"/>
<path d="M60.0725 130.983C60.0725 130.983 83.6549 124.339 84.8531 117.64C86.0513 110.995 87.0316 108.109 89.5369 104.024C92.0422 99.9394 90.7351 93.8941 93.894 94.0574C97.0528 94.2208 96.3993 100.539 95.9091 102.935C95.4189 105.331 97.7064 104.95 100.266 102.826C102.88 100.756 107.237 102.118 107.891 106.802C107.891 106.802 110.124 108.436 109.525 112.52C109.525 112.52 111.104 114.045 110.178 116.605C110.178 116.605 111.485 119.655 107.51 121.834C103.534 124.012 99.3403 125.21 96.0725 126.572C92.8047 127.879 59.31 161.864 44.0604 155.001C28.8108 148.085 40.4658 124.992 40.4658 124.992L60.0725 130.983Z" fill="#F7886B"/>
<path d="M101.9 107.237C102.502 107.237 102.989 106.75 102.989 106.148C102.989 105.547 102.502 105.059 101.9 105.059C101.298 105.059 100.811 105.547 100.811 106.148C100.811 106.75 101.298 107.237 101.9 107.237Z" fill="#F3586B"/>
<path d="M103.262 111.758C103.863 111.758 104.351 111.27 104.351 110.669C104.351 110.067 103.863 109.579 103.262 109.579C102.66 109.579 102.172 110.067 102.172 110.669C102.172 111.27 102.66 111.758 103.262 111.758Z" fill="#F3586B"/>
<path d="M104.351 115.734C104.832 115.734 105.222 115.343 105.222 114.862C105.222 114.381 104.832 113.991 104.351 113.991C103.87 113.991 103.479 114.381 103.479 114.862C103.479 115.343 103.87 115.734 104.351 115.734Z" fill="#F3586B"/>
<path d="M106.203 118.402C106.203 118.838 105.876 119.165 105.44 119.165C105.005 119.165 104.678 118.838 104.678 118.402C104.678 117.967 105.005 117.64 105.44 117.64C105.876 117.64 106.203 117.967 106.203 118.402Z" fill="#F3586B"/>
<path d="M104.678 107.455C104.569 107.455 104.514 107.401 104.46 107.292C104.46 107.183 104.514 107.074 104.623 107.074L107.891 106.638C108 106.638 108.109 106.693 108.109 106.802C108.109 106.911 108.054 107.02 107.945 107.02L104.678 107.455Z" fill="#0C253A"/>
<path d="M106.911 113.011C106.802 113.011 106.693 112.956 106.693 112.847C106.693 112.738 106.747 112.629 106.856 112.629L109.525 112.302C109.634 112.302 109.743 112.357 109.743 112.466C109.743 112.575 109.688 112.684 109.579 112.684L106.911 113.011Z" fill="#0C253A"/>
<path d="M56.8046 154.402C56.6957 154.402 56.6413 154.348 56.5868 154.293C56.5323 154.184 56.5868 154.076 56.6957 154.021C63.1223 151.625 74.723 145.253 93.4582 128.369C93.9484 127.933 94.2751 127.661 94.3841 127.552C95.6367 126.517 96.9983 126.027 97.1072 125.973C104.296 123.576 108.817 121.343 109.743 119.655C110.451 118.348 110.233 117.259 110.124 116.877L108.272 117.259C108.163 117.259 108.054 117.204 108.054 117.095C108.054 116.986 108.109 116.877 108.218 116.877L110.396 116.442L110.451 116.605C110.505 116.66 111.104 118.13 110.124 119.927C109.089 121.779 104.678 124.012 97.2706 126.463C97.2706 126.463 95.909 126.953 94.7108 127.933C94.6019 128.042 94.2751 128.315 93.785 128.75C74.9953 145.688 63.3402 152.06 56.8591 154.457C56.8046 154.402 56.8046 154.402 56.8046 154.402Z" fill="#0C253A"/>
<path d="M47.9817 135.558C47.8727 135.558 47.8183 135.504 47.7638 135.449C47.7093 135.34 47.7638 135.231 47.8727 135.177L59.9635 130.82C60.0724 130.765 60.1814 130.82 60.2358 130.929C60.2903 131.038 60.2358 131.147 60.1269 131.201L48.0361 135.558C48.0361 135.558 48.0361 135.558 47.9817 135.558Z" fill="#0C253A"/>
<path d="M40.5748 124.992L60.3448 130.929L53.6459 133.271L39.7578 126.681L40.5748 124.992Z" fill="#0C253A"/>
<path d="M91.5521 64.5386C91.5521 64.5386 86.5415 66.1725 84.6353 64.5386C84.6353 64.5386 84.3629 68.5144 91.2253 68.0787C91.1708 68.0787 91.3342 65.4644 91.5521 64.5386Z" fill="#0C253A"/>
<path d="M80.7141 55.7156C80.7141 56.9682 81.6944 57.6218 81.1498 58.0575C80.6051 58.4387 79.6248 58.1119 79.0257 57.295C78.4266 56.478 78.4266 55.4433 78.9712 55.062C79.5159 54.6808 80.7141 54.7352 80.7141 55.7156Z" fill="#F3586B"/>
<path d="M89.2101 48.3631C89.2101 49.1255 88.7744 49.7791 88.2843 49.7791C87.7941 49.7791 87.3584 49.1255 87.3584 48.3631C87.3584 47.6006 87.7941 46.947 88.2843 46.947C88.7744 46.947 89.2101 47.6006 89.2101 48.3631Z" fill="#0C253A"/>
<path d="M97.5975 47.328C97.5975 47.9271 97.2707 48.4718 96.835 48.4718C96.3993 48.4718 96.0725 47.9816 96.0725 47.328C96.0725 46.6745 96.3993 46.1843 96.835 46.1843C97.2707 46.2388 97.5975 46.729 97.5975 47.328Z" fill="#0C253A"/>
<path d="M95.8547 53.4281C95.7458 53.4281 95.6913 53.3736 95.6369 53.2647C95.4735 52.6111 96.2359 52.3388 96.7806 52.121C97.1074 52.012 97.4886 51.9031 97.5431 51.7397C97.5431 51.6853 97.4886 51.5763 97.3797 51.4129C96.3993 50.2692 94.9833 48.363 94.9288 48.363C94.8744 48.2541 94.8744 48.1452 94.9833 48.0907C95.0922 48.0362 95.2012 48.0362 95.2556 48.1452C95.2556 48.1452 96.6717 50.0514 97.652 51.1951C97.8698 51.4674 97.9243 51.6853 97.8698 51.9031C97.7609 52.2843 97.3252 52.3933 96.8895 52.5567C96.2359 52.7745 95.9636 52.9379 96.0181 53.2102C96.0726 53.3191 96.0181 53.4281 95.8547 53.4281C95.9092 53.4281 95.8547 53.4281 95.8547 53.4281Z" fill="#0C253A"/>
<path d="M97.7065 55.3341C97.7065 56.3689 95.1467 58.3296 93.295 58.3296C91.4433 58.3296 91.062 56.3689 91.062 55.3341C91.062 54.2993 92.5325 54.9529 94.3842 54.9529C96.236 54.9529 97.7065 54.2993 97.7065 55.3341Z" fill="white"/>
<path d="M92.8047 59.419C91.9878 59.419 91.6065 58.9833 91.5521 58.9833C91.4976 58.9289 91.4976 58.7655 91.5521 58.711C91.6065 58.6566 91.7699 58.6566 91.8244 58.711C91.8244 58.711 92.4235 59.2556 93.5672 58.8744C93.6761 58.8199 93.7851 58.8744 93.8395 58.9833C93.894 59.0923 93.8395 59.2012 93.7306 59.2556C93.4038 59.419 93.077 59.419 92.8047 59.419Z" fill="#0C253A"/>
<path d="M99.9393 43.4612C99.8849 44.0058 98.7411 43.8424 97.434 43.6791C96.0725 43.5157 95.0377 43.3523 95.0921 42.8077C95.1466 42.263 95.6368 41.555 96.9439 41.7729C98.3054 41.9362 99.9938 42.9166 99.9393 43.4612Z" fill="#0C253A"/>
<path d="M84.9621 45.8033C85.1799 46.2935 86.2147 45.8578 87.4129 45.3131C88.6656 44.7685 89.6459 44.3328 89.4281 43.8426C89.2102 43.3525 88.5566 42.8078 87.3585 43.3525C86.1058 43.8971 84.7442 45.3131 84.9621 45.8033Z" fill="#0C253A"/>
<path d="M86.9228 53.7548C83.655 53.7548 80.9863 51.0861 80.9863 47.8183C80.9863 44.5505 83.655 41.8818 86.9228 41.8818C90.1906 41.8818 92.8592 44.5505 92.8592 47.8183C92.8592 51.0861 90.1906 53.7548 86.9228 53.7548ZM86.9228 42.4809C83.9818 42.4809 81.531 44.8773 81.531 47.8728C81.531 50.8138 83.9273 53.2646 86.9228 53.2646C89.9182 53.2646 92.3146 50.8682 92.3146 47.8728C92.3146 44.8773 89.9182 42.4809 86.9228 42.4809Z" fill="#F8BC4A"/>
<path d="M100.375 50.4871C97.3251 50.4871 94.8198 47.9819 94.8198 44.9319C94.8198 41.882 97.3251 39.3767 100.375 39.3767C103.425 39.3767 105.93 41.882 105.93 44.9319C105.93 47.9819 103.425 50.4871 100.375 50.4871ZM100.375 39.8669C97.5974 39.8669 95.3645 42.0999 95.3645 44.8775C95.3645 47.6551 97.5974 49.8881 100.375 49.8881C103.153 49.8881 105.386 47.6551 105.386 44.8775C105.386 42.0999 103.153 39.8669 100.375 39.8669Z" fill="#F8BC4A"/>
<path d="M81.313 66.6626C81.2585 66.6626 81.2585 66.6626 81.313 66.6626C80.9318 66.6081 80.5505 66.5536 80.1693 66.5536C79.08 66.4447 78.0452 66.3358 77.5006 65.6278C77.1194 65.0831 77.0104 64.2662 77.2827 63.1225C77.8274 60.6172 76.2479 59.6369 74.5596 58.6021C74.015 58.2753 73.4703 57.9485 73.0346 57.5673C72.7079 57.2949 72.1632 56.9682 71.4552 56.5869C67.9151 54.5718 60.5082 50.3237 60.8349 41.2829C61.1617 30.5537 72.1088 24.9984 72.2177 24.944C72.3266 24.8895 72.4355 24.944 72.49 25.0529C72.5445 25.1618 72.49 25.2708 72.3811 25.3252C72.2721 25.3797 61.543 30.826 61.2162 41.3373C60.9439 50.1058 68.1874 54.245 71.6731 56.2602C72.4355 56.6959 72.9802 57.0226 73.3069 57.2949C73.7427 57.6762 74.2328 57.9485 74.7774 58.2753C76.4113 59.2556 78.3175 60.3993 77.7184 63.2314C77.5006 64.2662 77.5551 64.9742 77.8818 65.4099C78.3175 66.009 79.2979 66.1179 80.2782 66.1724C80.6594 66.2269 81.0407 66.2269 81.4219 66.2813C81.5308 66.2813 81.5853 66.3903 81.5853 66.4992C81.4764 66.6081 81.3675 66.6626 81.313 66.6626Z" fill="white"/>
<path d="M46.5113 51.9575C46.5113 51.9575 57.9485 64.5385 46.5113 69.0589C35.0741 73.5793 25.0529 69.6035 25.652 81.313C26.2511 93.0226 30.826 84.1451 38.0151 97.4885L35.3464 85.7245C35.3464 85.7245 27.7761 77.664 35.3464 76.0846C42.8623 74.5596 63.0136 70.0392 46.5113 51.9575Z" fill="#0C253A"/>
<path d="M123.576 112.629C123.522 112.629 123.413 112.575 123.413 112.52L117.749 100.811C117.694 100.702 117.749 100.593 117.858 100.538C117.967 100.484 118.076 100.538 118.13 100.647L123.794 112.357C123.849 112.466 123.794 112.575 123.685 112.629C123.631 112.629 123.631 112.629 123.576 112.629Z" fill="#FB8130"/>
<path d="M122.487 129.513C122.487 129.513 116.932 121.071 121.071 114.154C125.264 107.238 126.245 98.469 126.572 95.3646C126.898 92.2602 128.696 91.1165 131.31 92.2058C133.924 93.2406 133.815 101.573 133.815 101.573L122.487 129.513Z" fill="#F7886B"/>
<path d="M153.15 142.529H119.383C118.402 142.529 117.694 141.495 118.075 140.569L141.222 80.8774C141.494 80.1149 142.257 79.6248 143.074 79.6248H176.841C177.821 79.6248 178.529 80.6596 178.148 81.5854L155.001 141.277C154.729 142.039 153.966 142.529 153.15 142.529Z" fill="#0C253A"/>
<path d="M152.006 138.717H121.888C121.016 138.717 120.363 137.791 120.69 136.92L141.331 82.5114C141.603 81.8034 142.257 81.3677 143.019 81.3677H173.137C174.009 81.3677 174.662 82.2935 174.336 83.165L153.694 137.573C153.422 138.281 152.714 138.717 152.006 138.717Z" fill="white"/>
<path opacity="0.5" d="M162.953 103.534C161.374 110.941 154.021 116.986 146.614 116.986C139.207 116.986 134.741 110.941 136.702 103.534C138.662 96.1269 145.961 90.0815 153.041 90.0815C160.121 90.0815 164.587 96.1269 162.953 103.534Z" fill="#006B32"/>
<path d="M145.307 112.411C145.089 112.411 144.926 112.357 144.708 112.303C144.109 112.085 143.618 111.595 143.51 110.941L141.331 101.192C141.113 100.212 141.712 99.2859 142.693 99.068C143.673 98.8502 144.599 99.4493 144.817 100.43L146.342 107.401L158.541 97.0529C159.304 96.3994 160.393 96.5083 161.047 97.2708C161.7 98.0333 161.591 99.1225 160.829 99.7761L146.451 111.976C146.124 112.248 145.743 112.411 145.307 112.411Z" fill="#FFF582"/>
<path d="M151.951 124.829H130.275L132.399 120.036H154.021L151.951 124.829Z" fill="#D1E3FF"/>
<path d="M148.956 132.672H127.28L129.404 127.879H151.026L148.956 132.672Z" fill="#D1E3FF"/>
<path d="M172.103 106.039C172.103 106.039 176.351 101.682 176.133 96.8351C175.915 91.9879 175.261 89.0469 172.103 89.4281C168.944 89.8093 167.691 94.5476 168.835 97.7065C169.979 100.865 169.815 100.756 169.815 100.756C169.815 100.756 167.419 96.7806 164.913 98.2511C162.408 99.7216 160.938 102.064 163.334 107.292C163.334 107.292 158.487 106.856 158.051 111.322C157.615 115.734 160.611 117.967 160.611 117.967C160.611 117.967 157.561 118.185 158.051 122.215C158.487 126.245 160.175 129.513 160.175 129.513C160.175 129.513 160.992 131.092 162.517 128.968C164.042 126.844 163.988 123.086 163.988 123.086C163.988 123.086 168.454 121.997 167.473 114.917C167.473 114.917 171.721 114.045 172.103 106.039Z" fill="#F7886B"/>
<path d="M173.246 90.2451C173.246 90.2451 171.068 90.4629 170.632 91.4977C170.196 92.5325 170.578 95.6914 171.558 96.0182C172.538 96.2905 175.37 95.4735 175.425 94.4387C175.534 93.4039 174.771 90.1362 173.246 90.2451Z" fill="#FFA582"/>
<path d="M166.493 98.5778C166.493 98.5778 164.369 99.2313 164.151 100.321C163.933 101.41 164.859 104.46 165.894 104.569C166.929 104.678 169.488 103.316 169.434 102.281C169.379 101.246 168.018 98.1421 166.493 98.5778Z" fill="#FFA582"/>
<path d="M161.809 108.272C161.809 108.272 159.849 108.871 159.631 109.906C159.413 110.941 160.284 113.773 161.265 113.882C162.245 113.991 164.641 112.684 164.532 111.758C164.478 110.723 163.225 107.891 161.809 108.272Z" fill="#FFA582"/>
<path d="M160.175 118.729C160.175 118.729 159.031 119.056 158.922 119.655C158.814 120.254 159.304 121.943 159.903 121.997C160.447 122.051 161.863 121.289 161.809 120.744C161.755 120.2 161.047 118.511 160.175 118.729Z" fill="#FFA582"/>
<path d="M172.103 106.257C171.994 106.257 171.939 106.203 171.885 106.148C171.503 105.114 169.652 100.92 169.652 100.865C169.597 100.757 169.652 100.648 169.761 100.593C169.87 100.539 169.979 100.593 170.033 100.702C170.087 100.865 171.885 105.005 172.266 106.039C172.32 106.148 172.266 106.257 172.157 106.312C172.157 106.257 172.157 106.257 172.103 106.257Z" fill="#0C253A"/>
<path d="M167.473 115.135C167.364 115.135 167.31 115.08 167.255 114.971C165.349 108.98 163.28 107.455 163.225 107.455C163.116 107.401 163.116 107.237 163.171 107.183C163.225 107.074 163.334 107.074 163.443 107.129C163.552 107.183 165.676 108.708 167.582 114.862C167.637 114.971 167.582 115.08 167.473 115.135C167.528 115.135 167.528 115.135 167.473 115.135Z" fill="#0C253A"/>
<path d="M163.987 123.25C163.933 123.25 163.824 123.195 163.824 123.141C161.646 118.566 160.883 118.185 160.774 118.13C160.72 118.185 160.611 118.13 160.556 118.076C160.502 118.021 160.447 117.858 160.556 117.803C160.556 117.803 160.665 117.694 160.829 117.749C161.482 117.858 162.626 119.601 164.205 122.977C164.26 123.086 164.205 123.195 164.096 123.25C164.096 123.25 164.042 123.25 163.987 123.25Z" fill="#0C253A"/>
<path d="M116.278 59.4734L117.586 62.1421C117.64 62.3055 117.803 62.4144 117.967 62.4144L120.908 62.8501C121.343 62.9046 121.507 63.4492 121.18 63.7215L119.056 65.7911C118.947 65.9001 118.893 66.0635 118.893 66.2268L119.383 69.1678C119.437 69.6035 119.002 69.9303 118.62 69.7125L116.006 68.3509C115.843 68.2964 115.679 68.2964 115.516 68.3509L112.902 69.7125C112.52 69.9303 112.085 69.6035 112.139 69.1678L112.629 66.2268C112.684 66.0635 112.629 65.9001 112.466 65.7911L110.342 63.7215C110.015 63.3948 110.179 62.9046 110.614 62.8501L113.555 62.4144C113.719 62.4144 113.882 62.3055 113.937 62.1421L115.244 59.4734C115.57 59.0922 116.115 59.0922 116.278 59.4734Z" fill="#F9BD4A"/>
<path d="M113.937 62.4143L119.165 67.4249L119.492 69.3856L111.704 62.7411L113.937 62.4143Z" fill="#FFF582"/>
<path d="M114.318 61.652L118.947 66.009L119.71 65.2465L114.808 60.6172L114.318 61.652Z" fill="#FFF582"/>
<path d="M129.513 59.4734L130.82 62.1421C130.875 62.3055 131.038 62.4144 131.201 62.4144L134.142 62.8501C134.578 62.9046 134.741 63.4492 134.415 63.7215L132.291 65.7911C132.182 65.9001 132.127 66.0634 132.127 66.2268L132.617 69.1678C132.672 69.6035 132.236 69.9303 131.855 69.7125L129.241 68.3509C129.077 68.2964 128.914 68.2964 128.751 68.3509L126.136 69.7125C125.755 69.9303 125.319 69.6035 125.374 69.1678L125.864 66.2268C125.918 66.0634 125.864 65.9001 125.701 65.7911L123.577 63.7215C123.25 63.3948 123.413 62.9046 123.849 62.8501L126.79 62.4144C126.953 62.4144 127.117 62.3055 127.171 62.1421L128.478 59.4734C128.805 59.0922 129.35 59.0922 129.513 59.4734Z" fill="#F9BD4A"/>
<path d="M127.171 62.4143L132.4 67.4249L132.726 69.3856L124.938 62.7411L127.171 62.4143Z" fill="#FFF582"/>
<path d="M127.552 61.652L132.127 66.009L132.944 65.2465L128.043 60.6172L127.552 61.652Z" fill="#FFF582"/>
<path d="M142.747 59.4734L144.054 62.1421C144.109 62.3055 144.272 62.4144 144.436 62.4144L147.377 62.8501C147.812 62.9046 147.976 63.4492 147.649 63.7215L145.525 65.7911C145.416 65.9001 145.362 66.0634 145.362 66.2268L145.852 69.1678C145.906 69.6035 145.471 69.9303 145.089 69.7125L142.475 68.3509C142.312 68.2964 142.148 68.2964 141.985 68.3509L139.371 69.7125C138.989 69.9303 138.554 69.6035 138.608 69.1678L139.098 66.2268C139.153 66.0634 139.098 65.9001 138.935 65.7911L136.811 63.7215C136.484 63.3948 136.648 62.9046 137.083 62.8501L140.024 62.4144C140.188 62.4144 140.351 62.3055 140.405 62.1421L141.713 59.4734C142.039 59.0922 142.584 59.0922 142.747 59.4734Z" fill="#F9BD4A"/>
<path d="M140.406 62.4143L145.634 67.4249L145.961 69.3856L138.173 62.7411L140.406 62.4143Z" fill="#FFF582"/>
<path d="M140.732 61.652L145.362 66.009L146.178 65.2465L141.277 60.6172L140.732 61.652Z" fill="#FFF582"/>
<path d="M155.982 59.4734L157.289 62.1421C157.344 62.3055 157.507 62.4144 157.67 62.4144L160.611 62.8501C161.047 62.9046 161.21 63.4492 160.884 63.7215L158.76 65.7911C158.651 65.9001 158.596 66.0634 158.596 66.2268L159.086 69.1678C159.141 69.6035 158.705 69.9303 158.324 69.7125L155.71 68.3509C155.546 68.2964 155.383 68.2964 155.22 68.3509L152.605 69.7125C152.224 69.9303 151.788 69.6035 151.843 69.1678L152.333 66.2268C152.387 66.0634 152.333 65.9001 152.17 65.7911L150.046 63.7215C149.719 63.3948 149.882 62.9046 150.318 62.8501L153.259 62.4144C153.422 62.4144 153.586 62.3055 153.64 62.1421L154.947 59.4734C155.274 59.0922 155.819 59.0922 155.982 59.4734Z" fill="#F9BD4A"/>
<path d="M153.64 62.4143L158.869 67.4249L159.195 69.3856L151.407 62.7411L153.64 62.4143Z" fill="#FFF582"/>
<path d="M153.967 61.652L158.596 66.009L159.413 65.2465L154.511 60.6172L153.967 61.652Z" fill="#FFF582"/>
<path d="M169.216 59.4734L170.524 62.1421C170.578 62.3055 170.741 62.4144 170.905 62.4144L173.846 62.8501C174.281 62.9046 174.445 63.4492 174.118 63.7215L171.994 65.7911C171.885 65.9001 171.831 66.0634 171.831 66.2268L172.321 69.1678C172.375 69.6035 171.94 69.9303 171.558 69.7125L168.944 68.3509C168.781 68.2964 168.617 68.2964 168.454 68.3509L165.84 69.7125C165.458 69.9303 165.023 69.6035 165.077 69.1678L165.567 66.2268C165.622 66.0634 165.567 65.9001 165.404 65.7911L163.28 63.7215C162.953 63.3948 163.117 62.9046 163.552 62.8501L166.493 62.4144C166.657 62.4144 166.82 62.3055 166.874 62.1421L168.182 59.4734C168.508 59.0922 169.053 59.0922 169.216 59.4734Z" fill="#F9BD4A"/>
<path d="M166.875 62.4143L172.103 67.4249L172.43 69.3856L164.642 62.7411L166.875 62.4143Z" fill="#FFF582"/>
<path d="M167.201 61.652L171.831 66.009L172.647 65.2465L167.746 60.6172L167.201 61.652Z" fill="#FFF582"/>
<path d="M127.607 39.2134C131.746 43.3526 133.815 48.7989 133.815 54.2996H139.153C139.153 47.4917 136.593 40.6294 131.364 35.4554C126.19 30.2815 119.328 27.6672 112.52 27.6672V33.0046C118.021 33.0046 123.467 35.0742 127.607 39.2134Z" fill="#D1E3FF"/>
<path d="M125.428 41.392C121.888 37.8519 117.204 36.0546 112.575 36.1091V41.4465C115.842 41.4465 119.165 42.6991 121.67 45.2044C124.175 47.7097 125.428 50.9775 125.428 54.2997H130.765C130.711 49.6159 128.968 44.9866 125.428 41.392Z" fill="#D1E3FF"/>
<path d="M119.437 47.4373C117.531 45.5311 115.08 44.6052 112.575 44.6052V49.9426C113.664 49.9426 114.808 50.3783 115.679 51.1952C116.55 52.0667 116.932 53.1559 116.932 54.2996H122.269C122.269 51.7943 121.289 49.289 119.437 47.4373Z" fill="#D1E3FF"/>
</g>
<defs>
<clipPath id="clip0_1_967">
<rect width="180" height="162.953" fill="white"/>
</clipPath>
</defs>
</svg>
