<svg width="146" height="140" viewBox="0 0 146 140" fill="none" xmlns="http://www.w3.org/2000/svg">
<path d="M43.1622 63.9644C44.141 65.3483 43.334 67.1507 42.3586 68.1644C41.1598 69.4099 39.9426 69.2182 39.3891 70.3203C38.7188 71.6525 40.146 72.6312 39.4007 74.0234C38.9439 74.8788 38.317 74.6754 37.4083 75.7608C36.3012 77.083 37.3866 77.4598 36.6013 78.4286C34.0786 81.5381 33.0682 79.3806 31.5326 80.1993C29.5418 81.2597 28.2096 82.1634 27.2359 81.9516C23.406 81.118 24.5848 78.6003 22.7257 77.6299C20.213 76.3177 18.9859 70.9506 20.7099 69.0581C21.6136 68.0677 22.5056 67.9477 22.589 67.1223C22.7107 65.9319 20.9117 65.5851 20.7299 64.1528C20.5232 62.5288 22.679 61.7419 22.3572 60.3696C22.0438 59.0324 19.8329 59.0808 19.6912 58.1254C19.4761 56.6765 24.1963 54.0821 29.0866 54.2422C31.4242 54.3189 35.2324 55.0742 35.866 57.0216C36.2311 58.1471 35.2807 58.8724 35.816 60.3263C36.2061 61.3834 37.0698 61.9736 38.2119 62.7356C39.2974 63.4575 41.4299 61.5151 43.1622 63.9644Z" fill="#EEEEEE"/>
<path d="M31.4777 63.0924C32.2464 63.0541 32.6399 68.1828 32.193 68.8547C31.7462 69.5266 30.9075 70.0235 30.8525 70.7571C30.7975 71.4908 31.1243 84.4993 31.396 84.3126C31.6678 84.1242 33.9204 80.7145 33.4702 79.9208C33.02 79.1272 32.5115 77.9 32.6165 76.8613C32.7216 75.8242 32.7232 74.3452 33.0133 74.3819C33.3035 74.4186 33.06 76.9646 33.2618 77.4582C33.4635 77.9517 33.4985 78.3385 33.7887 78.3469C34.0788 78.3552 34.0854 75.6624 34.529 75.7091C34.9725 75.7558 34.6707 79.7257 34.519 80.461C34.3672 81.1963 33.847 83.7323 33.3652 84.6677C32.885 85.6014 31.4244 86.5818 31.3894 86.9003C31.3543 87.2187 31.5878 94.7951 31.5878 94.7951L27.7629 94.8651C27.7629 94.8651 29.1751 79.9275 28.86 79.4306C28.5449 78.9338 26.5491 74.8971 26.1222 74.4853C25.6954 74.0735 25.4386 71.5575 25.6654 71.5208C25.8905 71.4841 26.0155 73.9367 26.4857 73.9768C26.9543 74.0168 27.2077 69.2315 27.5478 69.2732C27.888 69.3149 27.2177 74.2385 27.4011 74.542C27.5845 74.8454 28.6516 76.6678 29.0051 76.6295C29.3585 76.5911 28.81 63.1941 29.1134 63.044C29.4169 62.8923 29.6453 63.019 29.8337 64.4196C30.0205 65.8218 30.3823 68.8831 30.5924 68.8797C30.8025 68.8764 31.3277 68.4145 31.3377 68.1077C31.3477 67.7976 31.1359 63.1091 31.4777 63.0924Z" fill="#BDBDBD"/>
<path d="M114.373 78.3051C113.819 79.0887 114.276 80.1091 114.828 80.6827C115.506 81.388 116.195 81.2796 116.51 81.9032C116.89 82.6568 116.082 83.212 116.503 83.999C116.762 84.4825 117.117 84.3675 117.632 84.9827C118.259 85.7314 117.644 85.9448 118.089 86.4933C119.518 88.254 120.09 87.0319 120.959 87.4954C122.086 88.0956 122.839 88.6075 123.391 88.4875C125.56 88.0156 124.892 86.59 125.944 86.0398C127.366 85.2979 128.061 82.2583 127.084 81.1862C126.572 80.626 126.067 80.5576 126.021 80.0908C125.952 79.4172 126.969 79.2204 127.073 78.4101C127.189 77.4897 125.969 77.0445 126.151 76.2676C126.327 75.5106 127.58 75.5373 127.661 74.9971C127.783 74.1767 125.11 72.7078 122.342 72.7995C121.019 72.8429 118.863 73.2697 118.504 74.3735C118.297 75.0104 118.836 75.4206 118.533 76.2442C118.313 76.8428 117.822 77.1763 117.175 77.6081C116.562 78.0183 115.355 76.9178 114.373 78.3051Z" fill="#EEEEEE"/>
<path d="M120.989 77.8117C120.554 77.79 120.332 80.6945 120.584 81.0746C120.835 81.4548 121.31 81.7366 121.342 82.1517C121.374 82.5669 121.189 89.9332 121.034 89.8265C120.88 89.7198 119.605 87.789 119.86 87.3405C120.115 86.8903 120.403 86.1967 120.343 85.6081C120.283 85.0212 120.283 84.1842 120.118 84.2042C119.953 84.2242 120.092 85.6665 119.977 85.9449C119.862 86.225 119.843 86.4435 119.678 86.4485C119.513 86.4535 119.51 84.9278 119.26 84.9545C119.01 84.9812 119.18 87.2288 119.266 87.6456C119.353 88.0624 119.646 89.498 119.92 90.0266C120.192 90.5551 121.019 91.1103 121.039 91.2904C121.059 91.4705 120.927 95.7605 120.927 95.7605L123.093 95.8005C123.093 95.8005 122.293 87.3438 122.471 87.062C122.649 86.7803 123.78 84.496 124.022 84.2626C124.263 84.0292 124.408 82.6053 124.28 82.5852C124.152 82.5652 124.082 83.9541 123.816 83.9758C123.551 83.9991 123.408 81.2897 123.216 81.3131C123.025 81.3364 123.403 84.1242 123.3 84.2959C123.196 84.4677 122.593 85.4997 122.391 85.4781C122.191 85.4564 122.501 77.8717 122.329 77.7867C122.157 77.7016 122.027 77.7716 121.922 78.5653C121.817 79.359 121.611 81.093 121.492 81.0913C121.374 81.0896 121.077 80.8279 121.07 80.6545C121.062 80.4761 121.182 77.8217 120.989 77.8117Z" fill="#BDBDBD"/>
<path d="M72.7859 140C112.984 140 145.572 128.464 145.572 114.233C145.572 100.002 112.984 88.4661 72.7859 88.4661C32.5873 88.4661 0 100.002 0 114.233C0 128.464 32.5873 140 72.7859 140Z" fill="url(#paint0_linear_1_1605)"/>
<path d="M75.0802 86.28C74.9085 86.6052 74.7368 87.0153 74.7368 87.2738C74.7368 87.5322 74.6984 88.5159 74.7368 88.631C74.7751 88.746 75.9122 88.9461 76.3808 88.9078C76.8493 88.8694 77.2795 88.4209 77.3078 88.3158C77.3361 88.2108 77.4028 86.7386 77.3078 86.5668C77.2128 86.3951 75.0802 86.28 75.0802 86.28Z" fill="#F2DAD4"/>
<path d="M69.3183 86.7903C69.2466 87.0788 69.2282 87.7691 69.2732 87.9391C69.3183 88.1092 69.525 88.4327 69.525 88.7461C69.525 89.0596 71.7959 89.0512 71.886 88.8545C71.976 88.6577 71.9793 88.1325 71.9693 87.9258C71.961 87.719 72.1627 87.3372 72.101 87.1305C72.0377 86.9237 71.7776 86.5286 71.5358 86.4752C71.2924 86.4235 69.3183 86.7903 69.3183 86.7903Z" fill="#F2DAD4"/>
<path d="M65.5247 53.6288C65.0629 55.3194 64.6327 60.6382 64.9412 62.7891C65.248 64.9416 66.0783 70.8423 66.0783 73.4567C66.0783 76.0694 66.9803 80.3278 67.4072 81.8834C67.834 83.4374 68.4509 86.8654 68.7877 86.9421C69.1245 87.0188 69.6464 87.3106 70.6268 87.1255C71.6072 86.9421 71.884 86.697 71.899 86.2985C71.914 85.9 71.2087 81.4399 71.102 80.3678C70.9953 79.2957 70.275 74.8056 70.2433 74.207C70.2133 73.6101 70.8252 71.4943 70.8869 70.2538C70.9486 69.0133 71.2704 64.5681 71.4538 63.9712C71.6372 63.3743 72.0824 60.5082 72.2808 60.4932C72.4792 60.4782 73.6147 63.9562 73.7831 65.075C73.9515 66.1938 74.8101 73.4734 75.0236 73.9019C75.2386 74.3304 74.9469 76.8897 74.8085 77.8401C74.6701 78.7905 74.6334 86.2352 74.7935 86.4186C74.9535 86.602 75.7872 86.9821 76.3391 86.9821C76.891 86.9821 77.7863 86.7487 77.9214 86.4669C78.0564 86.1851 77.873 85.1547 78.0198 84.6512C78.1665 84.1477 79.5404 78.8872 79.6137 77.615C79.6871 76.3429 79.3236 71.4709 79.2686 70.2721C79.2136 69.0716 79.7771 65.4368 79.9055 64.4731C80.0322 63.5094 80.4691 59.4928 80.4691 58.5474C80.4691 57.602 80.2873 54.7125 79.7238 54.0573C79.1602 53.4037 65.5247 53.6288 65.5247 53.6288Z" fill="#192B59"/>
<path d="M87.8655 37.9341C88.0956 37.7773 88.4708 37.4856 88.5342 37.2821C88.5975 37.0787 88.8376 36.5352 89.096 36.4051C89.3545 36.2751 89.898 36.1067 90.1481 36.0233C90.3982 35.9399 91.0252 35.5748 91.1402 35.5214C91.2552 35.4698 91.6254 35.4014 91.7254 35.5998C91.8255 35.7982 91.6938 36.195 91.4337 36.2951C91.1719 36.3951 90.5566 36.5935 90.6133 36.7286C90.67 36.8636 91.2602 37.0104 91.7254 36.7803C92.1906 36.5502 92.9943 36.3468 93.1827 36.2417C93.3711 36.1367 94.755 35.5698 94.895 35.5731C95.0351 35.5765 95.1818 35.6365 95.2452 35.7682C95.3085 35.8999 95.7237 35.5765 95.8504 35.7966C95.9771 36.015 95.6787 36.1384 95.6637 36.2067C95.647 36.2751 95.8304 36.3468 95.8354 36.5102C95.8388 36.6736 95.597 36.7653 95.2102 36.9403C94.8233 37.1154 93.071 38.2209 92.7925 38.3676C92.5141 38.5143 91.9439 38.8194 91.2352 38.8828C90.525 38.9461 89.6629 38.9795 89.4612 39.2379C89.2594 39.4947 88.7859 40.175 88.6609 40.2167C88.5358 40.2583 87.7355 40.3834 87.5404 39.9032C87.3437 39.423 87.8655 37.9341 87.8655 37.9341Z" fill="#F2DAD4"/>
<path d="M57.7051 36.7051C57.475 36.5483 57.0999 36.2566 57.0365 36.0531C56.9731 35.8497 56.733 35.3062 56.4746 35.1761C56.2162 35.0461 55.6726 34.8777 55.4225 34.7943C55.1724 34.7109 54.5455 34.3458 54.4305 34.2924C54.3154 34.2407 53.9453 34.1724 53.8452 34.3708C53.7452 34.5692 53.8769 34.966 54.137 35.0661C54.3988 35.1645 55.014 35.3645 54.9573 35.4996C54.9006 35.6346 54.3104 35.7814 53.8452 35.5513C53.38 35.3212 52.5764 35.1178 52.388 35.0127C52.1996 34.9077 50.8157 34.3408 50.6756 34.3441C50.5356 34.3475 50.3888 34.4075 50.3255 34.5392C50.2621 34.6709 49.8469 34.3475 49.7202 34.5675C49.5935 34.786 49.892 34.9094 49.907 34.9777C49.9236 35.0461 49.7402 35.1178 49.7352 35.2812C49.7319 35.4446 49.9737 35.5363 50.3605 35.7113C50.7473 35.8864 52.4997 36.9919 52.7781 37.1386C53.0566 37.2853 53.6268 37.5904 54.3354 37.6538C55.0457 37.7171 55.9077 37.7505 56.1095 38.0089C56.3112 38.2657 56.4579 38.5858 56.583 38.6275C56.708 38.6692 57.5083 38.7942 57.7034 38.314C57.9002 37.8355 57.7051 36.7051 57.7051 36.7051Z" fill="#F2DAD4"/>
<path d="M70.592 29.2639C69.6283 29.3789 65.8351 29.8441 65.1665 31.2346C64.4995 32.6252 63.9076 35.9465 63.5958 36.8819C63.284 37.8173 62.6771 40.0148 62.412 40.0148C62.1469 40.0148 57.7835 36.6335 57.6901 36.6335C57.5968 36.6335 57.7985 37.4438 57.285 37.974C56.7714 38.5042 56.3963 38.3642 56.4896 38.6293C56.583 38.8944 58.9523 41.7455 59.5759 42.5725C60.1995 43.3979 62.8639 45.5804 63.5341 45.5487C64.2044 45.517 66.4653 42.1824 66.6354 42.1824C66.8071 42.1824 66.4236 47.4962 66.1285 48.6216C65.8334 49.7471 64.5462 54.6574 64.8947 55.0859C65.2432 55.5144 68.9663 56.7882 71.8608 56.8683C74.7553 56.9483 80.621 55.8829 80.7277 55.1326C80.8344 54.3823 79.5222 50.2489 79.5222 48.5883C79.5222 46.9259 79.1521 41.0186 79.3938 40.9819C79.6356 40.9452 81.2546 45.4854 82.8369 45.392C84.4192 45.2986 87.6755 42.0056 88.029 41.372C88.3824 40.7401 89.0711 40.0699 88.8843 39.9765C88.6976 39.8831 88.029 39.2695 88.029 38.8043C88.029 38.3392 88.0857 37.7439 87.8806 37.8373C87.6755 37.9307 86.3366 39.1211 85.7781 39.4379C85.2195 39.7547 84.3258 40.2566 84.2141 40.0699C84.1024 39.8831 82.39 36.6652 82.26 36.0132C82.1299 35.3613 81.2729 30.9879 80.5476 30.5977C79.8223 30.2076 76.4426 28.9971 75.8574 28.9971C75.2738 28.9954 70.592 29.2639 70.592 29.2639Z" fill="url(#paint1_linear_1_1605)"/>
<path d="M70.5317 28.0618C70.5317 28.512 70.7718 29.1323 70.5918 29.264C70.4117 29.394 71.4421 32.1868 72.4442 32.2469C73.4446 32.3069 75.227 29.5241 75.267 29.214C75.307 28.9039 75.1769 27.7917 75.1469 27.7517C75.1169 27.7117 70.5317 28.0618 70.5317 28.0618Z" fill="url(#paint2_linear_1_1605)"/>
<path d="M69.1715 24.3287C68.9965 23.1232 68.6163 21.9911 68.8747 20.8123C69.1332 19.6334 69.9785 18.1979 71.7226 18.0178C73.4666 17.8361 74.2986 18.5013 75.1589 19.6118C76.0193 20.7222 75.9059 24.2336 75.6808 24.4604C75.4541 24.6871 73.9785 25.3891 72.3145 25.4124C70.6521 25.4341 69.1715 24.3287 69.1715 24.3287Z" fill="#E64D4E"/>
<path d="M69.8585 26.1227C69.8585 26.1227 70.2053 28.0218 70.4504 28.2269C70.6955 28.4303 71.9977 29.4724 72.8281 29.4323C73.6584 29.3923 75.3524 28.2069 75.4558 27.5333C75.5575 26.8596 75.4591 25.5475 75.5208 25.5725C75.5825 25.5975 76.046 25.6475 76.1327 24.9355C76.2194 24.2236 76.1944 23.1098 75.921 23.0981C75.6458 23.0865 75.5091 24.1235 75.3591 24.1235C75.209 24.1235 75.1907 22.6129 74.9222 22.2811C74.6538 21.9493 72.8697 21.6025 72.6163 21.6025C72.3645 21.6025 71.2107 23.1031 69.7268 23.3399C69.7268 23.3399 70.0269 24.5237 69.8052 24.5404C69.5834 24.5554 69.2833 23.5933 69.0782 23.5933C68.8731 23.5933 68.8248 24.5721 68.9198 25.219C69.0149 25.8659 69.3783 26.2294 69.5034 26.2294C69.6318 26.2261 69.7218 26.0343 69.8585 26.1227Z" fill="#F2DAD4"/>
<path d="M77.4482 88.7627C77.6549 89.0678 77.6232 89.8465 78.0284 90.5951C78.4336 91.3438 78.7454 91.9923 78.7604 92.5259C78.7754 93.0594 78.2185 93.9298 77.4482 94.0515C76.6779 94.1732 75.7992 94.2199 75.4107 94.0132C75.0222 93.8064 74.5553 93.4563 74.5553 92.8844C74.5553 92.3125 74.647 91.2054 74.5553 91.0153C74.4636 90.8252 74.3719 90.26 74.3719 89.9765C74.3719 89.6948 74.3036 88.8628 74.4636 88.656C74.6237 88.4493 75.2573 88.0308 75.8909 88.0374C76.5245 88.0441 77.2731 88.5026 77.4482 88.7627Z" fill="url(#paint3_linear_1_1605)"/>
<path d="M69.2661 88.7627C69.0594 89.0678 69.091 89.8465 68.6859 90.5951C68.2807 91.3438 67.9689 91.9923 67.9539 92.5259C67.9389 93.0594 68.4958 93.9298 69.2661 94.0515C70.0364 94.1732 70.9151 94.2199 71.3036 94.0132C71.6921 93.8064 72.1589 93.4563 72.1589 92.8844C72.1589 92.3125 72.0672 91.2054 72.1589 91.0153C72.2506 90.8252 72.3423 90.26 72.3423 89.9765C72.3423 89.6948 72.4107 88.8628 72.2506 88.656C72.0906 88.4493 71.457 88.0308 70.8234 88.0374C70.1898 88.0441 69.4412 88.5026 69.2661 88.7627Z" fill="url(#paint4_linear_1_1605)"/>
<path d="M54.6266 36.3518L25.9834 25.2056C25.0998 24.8622 24.6629 23.8668 25.0064 22.9847L33.5265 1.09428C33.8699 0.210592 34.8653 -0.226249 35.7474 0.117222L64.3905 11.2634C65.2742 11.6068 65.711 12.6022 65.3676 13.4843L56.8492 35.3747C56.504 36.2584 55.5103 36.6969 54.6266 36.3518Z" fill="#EEEEEE"/>
<path d="M29.2314 17.4792L35.0288 2.58322C35.2355 2.05301 35.8308 1.79124 36.361 1.99799L62.6682 12.2354C63.1984 12.4422 63.4602 13.0374 63.2534 13.5676L57.4561 28.4636L52.9643 15.4567C52.6308 14.4897 51.4954 14.0695 50.6134 14.5864L41.2613 20.0652C40.4409 20.5454 39.3889 20.1336 39.1121 19.2249L37.7549 14.7731C37.4297 13.7044 36.1809 13.2292 35.2272 13.8127L29.2314 17.4792Z" fill="#BDBDBD"/>
<path d="M46.2837 11.6001C45.6968 13.109 43.9978 13.856 42.4889 13.2691C40.9799 12.6822 40.233 10.9832 40.8199 9.47423C41.4068 7.96529 43.1058 7.21832 44.6147 7.80522C46.1237 8.39213 46.8723 10.0911 46.2837 11.6001Z" fill="#EEEEEE"/>
<defs>
<linearGradient id="paint0_linear_1_1605" x1="72.7855" y1="76.7878" x2="72.7855" y2="117.25" gradientUnits="userSpaceOnUse">
<stop stop-color="#E5E5E5"/>
<stop offset="0.4764" stop-color="#F4F4F4"/>
<stop offset="1" stop-color="white"/>
</linearGradient>
<linearGradient id="paint1_linear_1_1605" x1="67.4825" y1="21.3043" x2="75.6178" y2="49.3793" gradientUnits="userSpaceOnUse">
<stop stop-color="#4E9CFF"/>
<stop offset="0.9844" stop-color="#176AD4"/>
</linearGradient>
<linearGradient id="paint2_linear_1_1605" x1="72.1642" y1="26.2029" x2="73.4842" y2="30.7583" gradientUnits="userSpaceOnUse">
<stop stop-color="#F2BFAD"/>
<stop offset="1" stop-color="#F2DAD4"/>
</linearGradient>
<linearGradient id="paint3_linear_1_1605" x1="77.7479" y1="86.7162" x2="76.036" y2="92.624" gradientUnits="userSpaceOnUse">
<stop stop-color="#4E9CFF"/>
<stop offset="0.9844" stop-color="#176AD4"/>
</linearGradient>
<linearGradient id="paint4_linear_1_1605" x1="68.9664" y1="86.7162" x2="70.6783" y2="92.624" gradientUnits="userSpaceOnUse">
<stop stop-color="#4E9CFF"/>
<stop offset="0.9844" stop-color="#176AD4"/>
</linearGradient>
</defs>
</svg>
